<svg width="206" height="21" viewBox="0 0 206 21" fill="none" xmlns="http://www.w3.org/2000/svg">
<path d="M4.424 20.096V16.424H7.688C8.504 16.424 9.24 16.304 9.896 16.064C10.552 15.808 11.112 15.456 11.576 15.008C12.04 14.544 12.392 13.992 12.632 13.352C12.872 12.696 12.992 11.976 12.992 11.192C12.992 10.376 12.872 9.648 12.632 9.008C12.392 8.368 12.04 7.824 11.576 7.376C11.112 6.928 10.552 6.592 9.896 6.368C9.24 6.128 8.504 6.008 7.688 6.008H4.424V2.336H7.472C9.056 2.336 10.44 2.568 11.624 3.032C12.808 3.496 13.8 4.128 14.6 4.928C15.4 5.728 15.992 6.648 16.376 7.688C16.776 8.712 16.976 9.792 16.976 10.928V11.456C16.976 12.512 16.776 13.56 16.376 14.6C15.992 15.624 15.4 16.552 14.6 17.384C13.8 18.2 12.808 18.856 11.624 19.352C10.44 19.848 9.056 20.096 7.472 20.096H4.424ZM0.968 20.096V2.336H4.904V20.096H0.968ZM27.446 20V16.112H26.798V11.888C26.798 11.216 26.638 10.712 26.318 10.376C25.998 10.04 25.486 9.872 24.782 9.872C24.43 9.872 23.966 9.88 23.39 9.896C22.814 9.912 22.222 9.936 21.614 9.968C21.006 10 20.454 10.032 19.958 10.064V6.824C20.326 6.792 20.758 6.76 21.254 6.728C21.75 6.696 22.262 6.672 22.79 6.656C23.318 6.64 23.814 6.632 24.278 6.632C25.622 6.632 26.75 6.824 27.662 7.208C28.59 7.592 29.294 8.176 29.774 8.96C30.254 9.728 30.494 10.72 30.494 11.936V20H27.446ZM23.246 20.336C22.302 20.336 21.47 20.168 20.75 19.832C20.046 19.496 19.494 19.016 19.094 18.392C18.694 17.752 18.494 16.992 18.494 16.112C18.494 15.152 18.742 14.368 19.238 13.76C19.734 13.136 20.43 12.68 21.326 12.392C22.222 12.088 23.254 11.936 24.422 11.936H27.23V14.072H24.398C23.726 14.072 23.206 14.24 22.838 14.576C22.486 14.896 22.31 15.336 22.31 15.896C22.31 16.424 22.486 16.856 22.838 17.192C23.206 17.512 23.726 17.672 24.398 17.672C24.83 17.672 25.214 17.6 25.55 17.456C25.902 17.296 26.19 17.032 26.414 16.664C26.638 16.296 26.766 15.784 26.798 15.128L27.71 16.088C27.63 17 27.406 17.768 27.038 18.392C26.686 19.016 26.19 19.496 25.55 19.832C24.926 20.168 24.158 20.336 23.246 20.336ZM33.752 20V6.848H36.8V12.488H36.584C36.584 11.144 36.752 10.024 37.088 9.128C37.44 8.232 37.968 7.56 38.672 7.112C39.376 6.664 40.232 6.44 41.24 6.44H41.408C42.944 6.44 44.112 6.944 44.912 7.952C45.728 8.944 46.136 10.456 46.136 12.488V20H42.296V12.272C42.296 11.568 42.088 10.992 41.672 10.544C41.256 10.096 40.696 9.872 39.992 9.872C39.272 9.872 38.688 10.104 38.24 10.568C37.808 11.016 37.592 11.608 37.592 12.344V20H33.752ZM50.0323 20V6.848H53.8723V20H50.0323ZM48.2803 9.68V6.848H53.8723V9.68H48.2803ZM51.5203 5.552C50.8003 5.552 50.2643 5.368 49.9123 5C49.5763 4.616 49.4083 4.136 49.4083 3.56C49.4083 2.968 49.5763 2.488 49.9123 2.12C50.2643 1.736 50.8003 1.544 51.5203 1.544C52.2403 1.544 52.7683 1.736 53.1043 2.12C53.4563 2.488 53.6323 2.968 53.6323 3.56C53.6323 4.136 53.4563 4.616 53.1043 5C52.7683 5.368 52.2403 5.552 51.5203 5.552ZM63.4479 20.456C62.3279 20.456 61.3359 20.264 60.4719 19.88C59.6239 19.496 58.9119 18.984 58.3359 18.344C57.7759 17.688 57.3439 16.96 57.0399 16.16C56.7519 15.344 56.6079 14.512 56.6079 13.664V13.184C56.6079 12.304 56.7519 11.464 57.0399 10.664C57.3439 9.848 57.7759 9.12 58.3359 8.48C58.8959 7.84 59.5919 7.336 60.4239 6.968C61.2719 6.584 62.2319 6.392 63.3039 6.392C64.7119 6.392 65.8959 6.712 66.8559 7.352C67.8319 7.976 68.5759 8.8 69.0879 9.824C69.5999 10.832 69.8559 11.936 69.8559 13.136V14.432H58.2159V12.248H67.5279L66.2799 13.256C66.2799 12.472 66.1679 11.8 65.9439 11.24C65.7199 10.68 65.3839 10.256 64.9359 9.968C64.5039 9.664 63.9599 9.512 63.3039 9.512C62.6319 9.512 62.0639 9.664 61.5999 9.968C61.1359 10.272 60.7839 10.72 60.5439 11.312C60.3039 11.888 60.1839 12.6 60.1839 13.448C60.1839 14.232 60.2959 14.92 60.5199 15.512C60.7439 16.088 61.0959 16.536 61.5759 16.856C62.0559 17.176 62.6799 17.336 63.4479 17.336C64.1519 17.336 64.7279 17.2 65.1759 16.928C65.6239 16.656 65.9279 16.32 66.0879 15.92H69.6159C69.4239 16.8 69.0479 17.584 68.4879 18.272C67.9279 18.96 67.2239 19.496 66.3759 19.88C65.5279 20.264 64.5519 20.456 63.4479 20.456ZM72.5684 20V2.48H76.4324V20H72.5684ZM71.0084 5.312V2.48H76.4324V5.312H71.0084ZM90.5917 20.408C89.4397 20.408 88.4157 20.176 87.5197 19.712C86.6237 19.232 85.9197 18.536 85.4077 17.624C84.9117 16.712 84.6637 15.592 84.6637 14.264V13.64H86.4877V14.576C86.4877 15.888 86.8557 16.912 87.5917 17.648C88.3437 18.368 89.3437 18.728 90.5917 18.728C91.8397 18.728 92.8397 18.368 93.5917 17.648C94.3437 16.912 94.7197 15.888 94.7197 14.576V3.656H96.5437V14.264C96.5437 15.592 96.2877 16.712 95.7757 17.624C95.2797 18.536 94.5837 19.232 93.6877 19.712C92.7917 20.176 91.7597 20.408 90.5917 20.408ZM86.9917 4.136V2.48H96.5437V4.136H86.9917ZM106.616 20.408C105.528 20.408 104.584 20.224 103.784 19.856C102.984 19.472 102.328 18.968 101.816 18.344C101.304 17.704 100.92 16.992 100.664 16.208C100.424 15.424 100.304 14.616 100.304 13.784V13.448C100.304 12.632 100.424 11.832 100.664 11.048C100.92 10.264 101.304 9.56 101.816 8.936C102.328 8.312 102.968 7.816 103.736 7.448C104.52 7.064 105.432 6.872 106.472 6.872C107.8 6.872 108.904 7.168 109.784 7.76C110.68 8.352 111.352 9.112 111.8 10.04C112.248 10.952 112.472 11.936 112.472 12.992V13.928H101.12V12.536H111.224L110.768 13.232C110.768 12.288 110.6 11.464 110.264 10.76C109.944 10.04 109.464 9.48 108.824 9.08C108.2 8.664 107.416 8.456 106.472 8.456C105.48 8.456 104.656 8.688 104 9.152C103.344 9.616 102.848 10.232 102.512 11C102.192 11.768 102.032 12.64 102.032 13.616C102.032 14.576 102.192 15.456 102.512 16.256C102.848 17.04 103.352 17.664 104.024 18.128C104.712 18.592 105.576 18.824 106.616 18.824C107.72 18.824 108.616 18.576 109.304 18.08C109.992 17.568 110.416 16.968 110.576 16.28H112.256C112.096 17.128 111.76 17.864 111.248 18.488C110.736 19.096 110.088 19.568 109.304 19.904C108.52 20.24 107.624 20.408 106.616 20.408ZM115.937 20V7.304H117.377V12.608H117.233C117.233 10.752 117.641 9.384 118.457 8.504C119.273 7.608 120.553 7.16 122.297 7.16H122.705V8.792H121.961C120.585 8.792 119.537 9.152 118.817 9.872C118.097 10.576 117.737 11.616 117.737 12.992V20H115.937ZM131.141 20.408C130.053 20.408 129.093 20.224 128.261 19.856C127.445 19.472 126.749 18.968 126.173 18.344C125.613 17.704 125.181 16.992 124.877 16.208C124.589 15.424 124.445 14.624 124.445 13.808V13.472C124.445 12.656 124.597 11.856 124.901 11.072C125.205 10.272 125.645 9.56 126.221 8.936C126.797 8.312 127.493 7.816 128.309 7.448C129.141 7.064 130.085 6.872 131.141 6.872C132.213 6.872 133.157 7.064 133.973 7.448C134.805 7.816 135.509 8.312 136.085 8.936C136.661 9.56 137.093 10.272 137.381 11.072C137.685 11.856 137.837 12.656 137.837 13.472V13.808C137.837 14.624 137.693 15.424 137.405 16.208C137.117 16.992 136.685 17.704 136.109 18.344C135.549 18.968 134.853 19.472 134.021 19.856C133.189 20.224 132.229 20.408 131.141 20.408ZM131.141 18.8C132.197 18.8 133.085 18.568 133.805 18.104C134.541 17.624 135.101 17 135.485 16.232C135.869 15.448 136.061 14.584 136.061 13.64C136.061 12.68 135.861 11.816 135.461 11.048C135.077 10.264 134.517 9.648 133.781 9.2C133.045 8.736 132.165 8.504 131.141 8.504C130.133 8.504 129.261 8.736 128.525 9.2C127.789 9.648 127.221 10.264 126.821 11.048C126.437 11.816 126.245 12.68 126.245 13.64C126.245 14.584 126.437 15.448 126.821 16.232C127.205 17 127.757 17.624 128.477 18.104C129.213 18.568 130.101 18.8 131.141 18.8ZM127.469 5.312L130.085 0.679998H132.197L134.789 5.312H133.277L131.237 1.616H131.045L128.981 5.312H127.469ZM141.508 20V7.304H142.948V12.632H142.66C142.66 11.448 142.836 10.432 143.188 9.584C143.54 8.736 144.068 8.08 144.772 7.616C145.476 7.152 146.364 6.92 147.436 6.92H147.508C149.108 6.92 150.3 7.424 151.084 8.432C151.868 9.424 152.26 10.824 152.26 12.632V20H150.484V12.248C150.484 11.144 150.18 10.256 149.572 9.584C148.964 8.912 148.116 8.576 147.028 8.576C145.908 8.576 145.004 8.928 144.316 9.632C143.644 10.32 143.308 11.232 143.308 12.368V20H141.508ZM157.414 20V7.304H159.19V20H157.414ZM155.374 8.744V7.304H159.19V8.744H155.374ZM157.798 4.952C157.366 4.952 157.038 4.84 156.814 4.616C156.606 4.376 156.502 4.08 156.502 3.728C156.502 3.376 156.606 3.088 156.814 2.864C157.038 2.624 157.366 2.504 157.798 2.504C158.23 2.504 158.55 2.624 158.758 2.864C158.966 3.088 159.07 3.376 159.07 3.728C159.07 4.08 158.966 4.376 158.758 4.616C158.55 4.84 158.23 4.952 157.798 4.952ZM163.914 20V7.28H165.354V12.632H165.066C165.066 11.464 165.226 10.456 165.546 9.608C165.882 8.76 166.378 8.104 167.034 7.64C167.69 7.16 168.522 6.92 169.53 6.92H169.602C170.61 6.92 171.442 7.152 172.098 7.616C172.754 8.08 173.242 8.736 173.562 9.584C173.882 10.432 174.042 11.448 174.042 12.632H173.466C173.466 11.464 173.626 10.456 173.946 9.608C174.282 8.76 174.778 8.104 175.434 7.64C176.106 7.16 176.946 6.92 177.954 6.92H178.026C179.034 6.92 179.866 7.152 180.522 7.616C181.194 8.08 181.69 8.736 182.01 9.584C182.346 10.432 182.514 11.448 182.514 12.632V20H180.714V12.224C180.714 11.104 180.442 10.216 179.898 9.56C179.354 8.904 178.57 8.576 177.546 8.576C176.49 8.576 175.65 8.92 175.026 9.608C174.418 10.28 174.114 11.192 174.114 12.344V20H172.314V12.224C172.314 11.104 172.042 10.216 171.498 9.56C170.954 8.904 170.17 8.576 169.146 8.576C168.09 8.576 167.25 8.92 166.626 9.608C166.018 10.28 165.714 11.192 165.714 12.344V20H163.914ZM192.688 20.408C191.6 20.408 190.64 20.224 189.808 19.856C188.992 19.472 188.296 18.968 187.72 18.344C187.16 17.704 186.728 16.992 186.424 16.208C186.136 15.424 185.992 14.624 185.992 13.808V13.472C185.992 12.656 186.144 11.856 186.448 11.072C186.752 10.272 187.192 9.56 187.768 8.936C188.344 8.312 189.04 7.816 189.856 7.448C190.688 7.064 191.632 6.872 192.688 6.872C193.76 6.872 194.704 7.064 195.52 7.448C196.352 7.816 197.056 8.312 197.632 8.936C198.208 9.56 198.64 10.272 198.928 11.072C199.232 11.856 199.384 12.656 199.384 13.472V13.808C199.384 14.624 199.24 15.424 198.952 16.208C198.664 16.992 198.232 17.704 197.656 18.344C197.096 18.968 196.4 19.472 195.568 19.856C194.736 20.224 193.776 20.408 192.688 20.408ZM192.688 18.8C193.744 18.8 194.632 18.568 195.352 18.104C196.088 17.624 196.648 17 197.032 16.232C197.416 15.448 197.608 14.584 197.608 13.64C197.608 12.68 197.408 11.816 197.008 11.048C196.624 10.264 196.064 9.648 195.328 9.2C194.592 8.736 193.712 8.504 192.688 8.504C191.68 8.504 190.808 8.736 190.072 9.2C189.336 9.648 188.768 10.264 188.368 11.048C187.984 11.816 187.792 12.68 187.792 13.64C187.792 14.584 187.984 15.448 188.368 16.232C188.752 17 189.304 17.624 190.024 18.104C190.76 18.568 191.648 18.8 192.688 18.8Z" fill="white"/>
<path d="M202.479 20V17.072H205.263V20H202.479Z" fill="#F13024"/>
</svg>
